<mxfile host="app.diagrams.net" modified="2023-07-30T21:46:21.444Z" agent="Mozilla/5.0 (Windows NT 10.0; Win64; x64) AppleWebKit/537.36 (KHTML, like Gecko) Chrome/115.0.0.0 Safari/537.36" version="21.6.6" etag="WgdmLjgMm1X3_XNKGxwz" type="github">
  <diagram name="Page-1" id="Zilbr_LEvzj7KqyzkXdu">
    <mxGraphModel>
      <root>
        <mxCell id="0" />
        <mxCell id="1" parent="0" />
      </root>
    </mxGraphModel>
  </diagram>
</mxfile>
